HIERARCHY
ROOT hip
{
  OFFSET 0 0 0
  CHANNELS 6 Xposition Yposition Zposition Zrotation Yrotation Xrotation
  JOINT abdomen
  {
    OFFSET 0 20.6881 -0.73152
    CHANNELS 3 Zrotation Xrotation Yrotation
    JOINT chest
    {
      OFFSET 0 11.7043 -0.48768
      CHANNELS 3 Zrotation Xrotation Yrotation
      JOINT neck
      {
        OFFSET 0 22.1894 -2.19456
        CHANNELS 3 Zrotation Xrotation Yrotation
        JOINT head
        {
          OFFSET -0.24384 7.07133 1.2192
          CHANNELS 3 Zrotation Xrotation Yrotation
          JOINT leftEye
          {
            OFFSET 4.14528 8.04674 8.04672
            CHANNELS 3 Zrotation Xrotation Yrotation
            End Site
            {
              OFFSET 1 0 0
            }
          }
          JOINT rightEye
          {
            OFFSET -3.6576 8.04674 8.04672
            CHANNELS 3 Zrotation Xrotation Yrotation
            End Site
            {
              OFFSET 1 0 0
            }
          }
        }
      }
      JOINT rCollar
      {
        OFFSET -2.68224 19.2634 -4.8768
        CHANNELS 3 Zrotation Xrotation Yrotation
        JOINT rShldr
        {
          OFFSET -8.77824 -1.95073 1.46304
          CHANNELS 3 Zrotation Xrotation Yrotation
          JOINT rForeArm
          {
            OFFSET -28.1742 -1.7115 0.48768
            CHANNELS 3 Zrotation Xrotation Yrotation
            JOINT rHand
            {
              OFFSET -22.5879 0.773209 7.07136
              CHANNELS 3 Zrotation Xrotation Yrotation
              JOINT rThumb1
              {
                OFFSET -1.2192 -0.487915 3.41376
                CHANNELS 3 Zrotation Xrotation Yrotation
                JOINT rThumb2
                {
                  OFFSET -3.37035 -0.52449 3.41376
                  CHANNELS 3 Zrotation Xrotation Yrotation
                  End Site
                  {
                    OFFSET -1.78271 -1.18214 1.43049
                  }
                }
              }
              JOINT rIndex1
              {
                OFFSET -7.75947 0.938293 5.60832
                CHANNELS 3 Zrotation Xrotation Yrotation
                JOINT rIndex2
                {
                  OFFSET -2.54057 -0.884171 1.56538
                  CHANNELS 3 Zrotation Xrotation Yrotation
                  End Site
                  {
                    OFFSET -1.62519 -0.234802 1.16502
                  }
                }
              }
              JOINT rMid1
              {
                OFFSET -8.24714 1.18213 3.41376
                CHANNELS 3 Zrotation Xrotation Yrotation
                JOINT rMid2
                {
                  OFFSET -3.10165 -0.590103 1.0647
                  CHANNELS 3 Zrotation Xrotation Yrotation
                  End Site
                  {
                    OFFSET -2.48547 -0.328903 0.83742
                  }
                }
              }
              JOINT rRing1
              {
                OFFSET -8.82822 0.546677 1.51678
                CHANNELS 3 Zrotation Xrotation Yrotation
                JOINT rRing2
                {
                  OFFSET -2.60934 -0.819778 -0.0198488
                  CHANNELS 3 Zrotation Xrotation Yrotation
                  End Site
                  {
                    OFFSET -2.33842 -0.294052 0.168128
                  }
                }
              }
              JOINT rPinky1
              {
                OFFSET -8.27202 -0.0477905 -0.4584
                CHANNELS 3 Zrotation Xrotation Yrotation
                JOINT rPinky2
                {
                  OFFSET -1.82734 -0.647385 -0.700984
                  CHANNELS 3 Zrotation Xrotation Yrotation
                  End Site
                  {
                    OFFSET -1.69225 -0.51767 -0.607171
                  }
                }
              }
            }
          }
        }
      }
      JOINT lCollar
      {
        OFFSET 2.68224 19.2634 -4.8768
        CHANNELS 3 Zrotation Xrotation Yrotation
        JOINT lShldr
        {
          OFFSET 8.77824 -1.95073 1.46304
          CHANNELS 3 Zrotation Xrotation Yrotation
          JOINT lForeArm
          {
            OFFSET 28.1742 -1.7115 0.48768
            CHANNELS 3 Zrotation Xrotation Yrotation
            JOINT lHand
            {
              OFFSET 22.5879 0.773209 7.07136
              CHANNELS 3 Zrotation Xrotation Yrotation
              JOINT lThumb1
              {
                OFFSET 1.2192 -0.487915 3.41376
                CHANNELS 3 Zrotation Xrotation Yrotation
                JOINT lThumb2
                {
                  OFFSET 3.37035 -0.52449 3.41376
                  CHANNELS 3 Zrotation Xrotation Yrotation
                  End Site
                  {
                    OFFSET 1.78271 -1.18214 1.43049
                  }
                }
              }
              JOINT lIndex1
              {
                OFFSET 7.75947 0.938293 5.60832
                CHANNELS 3 Zrotation Xrotation Yrotation
                JOINT lIndex2
                {
                  OFFSET 2.54057 -0.884171 1.56538
                  CHANNELS 3 Zrotation Xrotation Yrotation
                  End Site
                  {
                    OFFSET 1.62519 -0.234802 1.16502
                  }
                }
              }
              JOINT lMid1
              {
                OFFSET 8.24714 1.18213 3.41376
                CHANNELS 3 Zrotation Xrotation Yrotation
                JOINT lMid2
                {
                  OFFSET 3.10165 -0.590103 1.0647
                  CHANNELS 3 Zrotation Xrotation Yrotation
                  End Site
                  {
                    OFFSET 2.48547 -0.328903 0.83742
                  }
                }
              }
              JOINT lRing1
              {
                OFFSET 8.82822 0.546677 1.51678
                CHANNELS 3 Zrotation Xrotation Yrotation
                JOINT lRing2
                {
                  OFFSET 2.60934 -0.819778 -0.0198488
                  CHANNELS 3 Zrotation Xrotation Yrotation
                  End Site
                  {
                    OFFSET 2.33842 -0.294052 0.168128
                  }
                }
              }
              JOINT lPinky1
              {
                OFFSET 8.27202 -0.0477905 -0.4584
                CHANNELS 3 Zrotation Xrotation Yrotation
                JOINT lPinky2
                {
                  OFFSET 1.82734 -0.647385 -0.700984
                  CHANNELS 3 Zrotation Xrotation Yrotation
                  End Site
                  {
                    OFFSET 1.69225 -0.51767 -0.607171
                  }
                }
              }
            }
          }
        }
      }
    }
  }
  JOINT rButtock
  {
    OFFSET -8.77824 4.35084 1.2192
    CHANNELS 3 Zrotation Xrotation Yrotation
    JOINT rThigh
    {
      OFFSET 0 -1.70687 -2.19456
      CHANNELS 3 Zrotation Xrotation Yrotation
      JOINT rShin
      {
        OFFSET 0 -36.8199 0.73152
        CHANNELS 3 Zrotation Xrotation Yrotation
        JOINT rFoot
        {
          OFFSET 0.73152 -45.1104 -5.12064
          CHANNELS 3 Zrotation Xrotation Yrotation
          End Site
          {
            OFFSET -1.1221 -3.69964 12.103
          }
        }
      }
    }
  }
  JOINT lButtock
  {
    OFFSET 8.77824 4.35084 1.2192
    CHANNELS 3 Zrotation Xrotation Yrotation
    JOINT lThigh
    {
      OFFSET 0 -1.70687 -2.19456
      CHANNELS 3 Zrotation Xrotation Yrotation
      JOINT lShin
      {
        OFFSET 0 -36.8199 0.73152
        CHANNELS 3 Zrotation Xrotation Yrotation
        JOINT lFoot
        {
          OFFSET -0.73152 -45.1104 -5.12064
          CHANNELS 3 Zrotation Xrotation Yrotation
          End Site
          {
            OFFSET 1.1221 -3.69964 12.103
          }
        }
      }
    }
  }
}
MOTION
Frames:	4
Frame Time:	0.00833333
-4.33781 84.1002 -37.656 0.0 0.0 0.0 -1.51926 -0.00282949 -0.0413935 -0.418699 0.00102601 -0.0725113 -1.71263e-14 -2.38542e-15 4.96962e-16 -5.15039e-14 -6.36111e-15 1.44274e-15 -0.0 0.0 0.0 -0.0 0.0 0.0 -8.5495e-15 -2.60128e-17 3.47873e-16 -1.76985e-13 -8.75895e-16 5.36719e-15 -3.10472e-12 9.09241e-13 1.36764e-13 -3.55717e-11 -1.02983e-12 8.93736e-13 -8.3908e-11 -2.57922e-13 2.26774e-12 -1.44905e-10 -4.45278e-13 3.91367e-12 -8.39038e-11 -2.5524e-13 2.25819e-12 7.73091 5.47488 0.417314 -8.39073e-11 -2.57426e-13 2.26774e-12 2.90554 0.965183 0.102902 -8.38941e-11 -2.57227e-13 2.26933e-12 10.2786 0.731801 0.0259123 -8.3908e-11 -2.5842e-13 2.27728e-12 2.22167 -0.733487 -0.20892 -8.44716e-15 -2.52363e-17 4.96962e-17 -1.84118e-13 -9.75287e-16 3.18055e-15 -3.11257e-12 -9.47408e-13 9.85972e-14 -3.5594e-11 8.19266e-13 9.41444e-13 -8.39645e-11 -2.73064e-13 2.26774e-12 -1.44996e-10 -4.73903e-13 3.92799e-12 -8.3971e-11 -2.71142e-13 2.27092e-12 -7.73091 5.47488 -0.417314 -8.39652e-11 -2.72832e-13 2.26455e-12 -2.90554 0.965183 -0.102902 -8.39709e-11 -2.73031e-13 2.26853e-12 -10.2786 0.731801 -0.0259123 -8.39658e-11 -2.7313e-13 2.26455e-12 -2.22167 -0.733487 0.20892 -2.03217e-16 0.0 -3.88251e-19 -0.640602 -1.92323 -0.00643525 -0.00925419 -2.07856 -0.0764239 -0.512085 3.99733 0.140302 2.03217e-16 0.0 3.88251e-19 -1.6698 -6.49782 0.1547 -0.00231014 6.20799 -0.0679791 0.534115 0.285495 -0.0665762
-4.73165 82.4517 -40.1289 -2.1661 -6.7791 9.2111 -1.30262 -1.86351 -1.26054 1.7911 0.907724 -0.486229 -1.65155 0.0908901 -2.42758 -0.267782 -0.268634 -4.36109 -0.0 0.0 0.0 -0.0 0.0 0.0 -5.68643e-14 -1.11181e-13 5.02879e-14 19.7979 7.6983 1.50854 -4.36558 -2.01337 6.7861 0.0113434 -2.36312 -0.331095 5.25805e-10 -8.04061e-10 7.31924e-10 9.05707e-10 -1.38615e-09 1.26829e-09 5.25813e-10 -8.0406e-10 7.31915e-10 7.73091 5.47488 0.417314 5.25806e-10 -8.04061e-10 7.31923e-10 2.90554 0.965183 0.102902 5.25818e-10 -8.0406e-10 7.31925e-10 10.2786 0.731801 0.0259123 5.25806e-10 -8.04061e-10 7.31934e-10 2.22167 -0.733487 -0.20892 -5.68319e-14 -1.11185e-13 5.00009e-14 -23.6278 -0.964939 -0.708993 2.55626 -0.954527 -4.18936 -0.00652416 1.80303 -0.252955 6.75244e-10 -6.85933e-10 -4.77737e-10 1.16467e-09 -1.18876e-09 -8.2875e-10 6.75238e-10 -6.8593e-10 -4.77733e-10 -7.73091 5.47488 -0.417314 6.75243e-10 -6.85932e-10 -4.77739e-10 -2.90554 0.965183 -0.102902 6.75237e-10 -6.85932e-10 -4.77733e-10 -10.2786 0.731801 -0.0259123 6.75244e-10 -6.85933e-10 -4.77738e-10 -2.22167 -0.733487 0.20892 -2.03217e-16 0.0 -3.88251e-19 1.21667 -6.63118 -0.213166 0.00183792 5.50808 0.0589743 -0.644021 4.64724e-05 -1.64595 2.03217e-16 0.0 3.88251e-19 1.0039 -9.74254 -0.274106 -0.0163992 11.9801 -0.163023 0.626495 -2.85499 1.07349
-4.73122 82.4535 -40.0905 -2.214 -6.5942 9.1721 -1.1615 -3.82547 -2.55519 4.14032 1.86266 -0.924082 -3.38844 0.185867 -4.99294 -0.594427 -0.542682 -8.96994 -0.0 0.0 0.0 -0.0 0.0 0.0 -1.11464e-13 -2.34424e-13 1.01492e-13 40.2739 15.82 3.19807 -8.47191 -4.05194 13.996 -0.00647161 -4.86509 -0.683561 1.21523e-09 -1.71395e-09 1.53155e-09 2.09377e-09 -2.95488e-09 2.65401e-09 1.21524e-09 -1.71395e-09 1.53154e-09 7.73091 5.47488 0.417314 1.21523e-09 -1.71395e-09 1.53155e-09 2.90554 0.965183 0.102902 1.21524e-09 -1.71395e-09 1.53155e-09 10.2786 0.731801 0.0259123 1.21523e-09 -1.71395e-09 1.53156e-09 2.22167 -0.733487 -0.20892 -1.11505e-13 -2.34433e-13 1.01216e-13 -48.6359 -2.01849 -1.44456 5.09875 -1.94205 -8.60799 0.00402491 3.73212 -0.524455 1.53101e-09 -1.41384e-09 -1.00649e-09 2.64095e-09 -2.45039e-09 -1.74612e-09 1.531e-09 -1.41384e-09 -1.00649e-09 -7.73091 5.47488 -0.417314 1.53101e-09 -1.41384e-09 -1.00649e-09 -2.90554 0.965183 -0.102902 1.531e-09 -1.41384e-09 -1.00649e-09 -10.2786 0.731801 -0.0259123 1.53101e-09 -1.41384e-09 -1.00649e-09 -2.22167 -0.733487 0.20892 -2.03217e-16 0.0 -3.88251e-19 3.14037 -11.6105 -0.434982 -0.0261895 13.5301 0.207248 -1.05356 -4.2201 -3.53517 2.03217e-16 0.0 3.88251e-19 3.77434 -13.1718 -0.734637 -0.00933898 18.0839 -0.270024 0.861559 -6.17029 2.29479
-4.71488 82.4536 -40.0551 -2.1841 -6.4391 9.1762 -1.10768 -5.57456 -3.71443 6.25002 2.7205 -1.31496 -4.93162 0.270714 -7.2828 -0.924856 -0.787262 -13.0844 -0.0 0.0 0.0 -0.0 0.0 0.0 -1.53494e-13 -3.3349e-13 1.50168e-13 58.0896 23.028 4.87405 -11.6935 -5.7019 20.4514 -0.048437 -7.0884 -1.00008 1.74523e-09 -2.41167e-09 2.19124e-09 3.00693e-09 -4.15755e-09 3.79703e-09 1.74525e-09 -2.41167e-09 2.19123e-09 7.73091 5.47488 0.417314 1.74523e-09 -2.41167e-09 2.19123e-09 2.90554 0.965183 0.102902 1.74524e-09 -2.41167e-09 2.19124e-09 10.2786 0.731801 0.0259123 1.74523e-09 -2.41167e-09 2.19125e-09 2.22167 -0.733487 -0.20892 -1.53601e-13 -3.33504e-13 1.49903e-13 -70.9551 -2.89304 -2.12939 7.25332 -2.80242 -12.5816 0.028369 5.40866 -0.761881 2.19366e-09 -2.05725e-09 -1.43775e-09 3.78401e-09 -3.56534e-09 -2.49411e-09 2.19366e-09 -2.05725e-09 -1.43774e-09 -7.73091 5.47488 -0.417314 2.19366e-09 -2.05725e-09 -1.43775e-09 -2.90554 0.965183 -0.102902 2.19365e-09 -2.05725e-09 -1.43774e-09 -10.2786 0.731801 -0.0259123 2.19367e-09 -2.05725e-09 -1.43774e-09 -2.22167 -0.733487 0.20892 -2.03217e-16 0.0 -3.88251e-19 4.82564 -16.0462 -0.647589 -0.0886795 20.681 0.351504 -1.65921 -7.96121 -5.2687 2.03217e-16 0.0 3.88251e-19 6.20004 -16.2291 -1.16427 0.0180327 23.524 -0.374371 1.18994 -9.12172 3.39258
